<svg version="1.2" xmlns="http://www.w3.org/2000/svg" viewBox="0 0 1000 775" width="1000" height="775">
	<title>pancakes-ai</title>
	<style>
		.s0 { fill: #999999 } 
		.s1 { fill: #fefefe } 
		.s2 { fill: #f3f3f3 } 
		.s3 { opacity: .8;fill: #feffff } 
		.s4 { fill: #999999 } 
		.s5 { fill: #f0f0f0 } 
		.s6 { fill: #bbbbbb } 
		.s7 { fill: #999999 } 
		.s8 { fill: #777777 } 
		.s9 { fill: #333333 } 
		.s10 { fill: #666666 } 
		.s11 { fill: #333333 } 
		.s12 { fill: #ffffff } 
		.s13 { fill: #bbbbbb } 
		.s14 { fill: #cccccc } 
		.s15 { fill: #dddddd } 
		.s16 { fill: #cccccc } 
		.s17 { fill: #ffffff } 
		.s18 { fill: #bbbbbb } 
	</style>
	<g id="bg">
	</g>
	<g id="pancakes">
		<g id="&lt;Group&gt;">
			<g id="&lt;Group&gt;">
				<path id="&lt;Path&gt;" class="s0" d="m995.1 521.9c0 139.3-221.6 252.2-494.9 252.2-273.3 0-494.8-112.9-494.8-252.2 0-139.3 221.5-252.2 494.8-252.2 273.3 0 494.9 112.9 494.9 252.2z"/>
				<path id="&lt;Path&gt;" class="s1" d="m1000.2 501.5c0 140.7-223.8 254.8-500 254.8-276.1 0-500-114.1-500-254.8 0-140.7 223.9-254.8 500-254.8 276.2 0 500 114.1 500 254.8z"/>
				<path id="&lt;Path&gt;" class="s2" d="m931.1 484.3c0 108.6-192.9 211.1-430.9 211.1-238 0-430.9-102.5-430.9-211.1 0-108.6 192.9-182.1 430.9-182.1 238 0 430.9 73.5 430.9 182.1z"/>
				<path id="&lt;Path&gt;" class="s3" d="m915.1 491.6c0 108.9-185.8 211.6-414.9 211.6-229.1 0-414.9-102.7-414.9-211.6 0-108.9 185.8-182.6 414.9-182.6 229.1 0 414.9 73.7 414.9 182.6z"/>
			</g>
			<path id="&lt;Path&gt;" class="s4" d="m126.1 367.5v-21c0-6 0.4-12.1 1.3-18.2-0.9-6.2-1.3-12.3-1.3-18.3v-26.7c0-6 0.4-12.1 1.3-18.2-0.9-6.2-1.3-12.3-1.3-18.3v-26.7c0-60.4 40-116.4 112.7-157.9 70.1-40 162.9-62 261.4-62 98.5 0 191.3 22 261.4 62 72.7 41.5 112.7 97.5 112.7 157.9v26.7c0 6-0.4 12.1-1.3 18.3 0.9 6.1 1.3 12.2 1.3 18.2v26.7c0 6-0.4 12.1-1.3 18.3 0.9 6.1 1.3 12.2 1.3 18.2v26.8c0 0.6-0.1 1.3-0.1 2-110.1-29.2-218-49.9-328.5-52.6-138.3-8.3-287-3.7-419.6 44.8z"/>
			<path id="&lt;Path&gt;" class="s5" d="m874.5 460.8c13.4 93.7-155.1 190.4-362.9 190.4q-19.1 0-37.7-1.1c-30.5 17.7-75.3 25.9-123.5 25.9-44.5 0-97.7-13.6-135.2-38.7-28-18.8-54.5-52.5-26.8-83.3-40-32.6-66.9-66.8-50.5-113 25.1-71 159.9-113.8 367.7-113.8 207.7 0 355 36.5 368.9 133.6z"/>
			<g id="&lt;Group&gt;">
				<path id="&lt;Path&gt;" class="s6" d="m859.4 436.5c0 113.2-160.8 205-359.2 205-198.4 0-359.2-91.8-359.2-205 0-2.5 0-12.4 0-14.9 0-113.3 160.8-205.1 359.2-205.1 198.4 0 359.2 91.8 359.2 205.1 0 2.5 0 12.4 0 14.9z"/>
				<path id="&lt;Path&gt;" class="s7" d="m859.4 424.6c0 113.2-160.8 205-359.2 205-198.4 0-359.2-91.8-359.2-205 0-2.5 0-12.4 0-14.9 0-113.3 160.8-205.1 359.2-205.1 198.4 0 359.2 91.8 359.2 205.1 0 2.5 0 12.4 0 14.9z"/>
				<path id="&lt;Path&gt;" class="s6" d="m849.7 402.1c0 107.6-156.5 194.8-349.5 194.8-193 0-349.5-87.2-349.5-194.8 0-107.6 156.5-194.8 349.5-194.8 193 0 349.5 87.2 349.5 194.8z"/>
			</g>
			<g id="&lt;Group&gt;">
				<path id="&lt;Path&gt;" class="s6" d="m859.4 373.3c0 113.2-160.8 205-359.2 205-198.4 0-359.2-91.8-359.2-205 0-2.5 0-12.4 0-14.9 0-113.3 160.8-205.1 359.2-205.1 198.4 0 359.2 91.8 359.2 205.1 0 2.5 0 12.4 0 14.9z"/>
				<path id="&lt;Path&gt;" class="s8" d="m852.7 373.3c0 113.2-157.8 205-352.5 205-194.6 0-352.4-91.8-352.4-205 0-2.5 0-12.4 0-14.9 0-113.3 157.8-205.1 352.4-205.1 194.7 0 352.5 91.8 352.5 205.1 0 2.5 0 12.4 0 14.9z"/>
				<path id="&lt;Path&gt;" class="s7" d="m859.4 361.4c0 113.2-160.8 205-359.2 205-198.4 0-359.2-91.8-359.2-205 0-2.5 0-12.4 0-14.9 0-113.3 160.8-205.1 359.2-205.1 198.4 0 359.2 91.8 359.2 205.1 0 2.5 0 12.4 0 14.9z"/>
				<path id="&lt;Path&gt;" class="s6" d="m849.7 338.9c0 107.6-156.5 194.8-349.5 194.8-193 0-349.5-87.2-349.5-194.8 0-107.6 156.5-194.8 349.5-194.8 193 0 349.5 87.2 349.5 194.8z"/>
			</g>
			<g id="&lt;Group&gt;">
				<path id="&lt;Path&gt;" class="s6" d="m859.4 310c0 113.3-160.8 205.1-359.2 205.1-198.4 0-359.2-91.8-359.2-205.1 0-2.4 0-12.3 0-14.8 0-113.3 160.8-205.1 359.2-205.1 198.4 0 359.2 91.8 359.2 205.1 0 2.5 0 12.4 0 14.8z"/>
				<path id="&lt;Path&gt;" class="s8" d="m852.7 310c0 113.3-157.8 205.1-352.5 205.1-194.6 0-352.4-91.8-352.4-205.1 0-2.4 0-12.3 0-14.8 0-113.3 157.8-205.1 352.4-205.1 194.7 0 352.5 91.8 352.5 205.1 0 2.5 0 12.4 0 14.8z"/>
				<path id="&lt;Path&gt;" class="s7" d="m859.4 298.2c0 113.2-160.8 205-359.2 205-198.4 0-359.2-91.8-359.2-205 0-2.5 0-12.4 0-14.9 0-113.3 160.8-205.1 359.2-205.1 198.4 0 359.2 91.8 359.2 205.1 0 2.5 0 12.4 0 14.9z"/>
				<path id="&lt;Path&gt;" class="s6" d="m851.2 275.7c0 107.6-157.2 194.8-351 194.8-193.8 0-350.9-87.2-350.9-194.8 0-107.6 157.1-194.8 350.9-194.8 193.8 0 351 87.2 351 194.8z"/>
			</g>
			<g id="&lt;Group&gt;">
				<path id="&lt;Path&gt;" class="s6" d="m859.4 246.8c0 113.3-160.8 205.1-359.2 205.1-198.4 0-359.2-91.8-359.2-205.1 0-2.4 0-12.3 0-14.8 0-113.3 160.8-205.1 359.2-205.1 198.4 0 359.2 91.8 359.2 205.1 0 2.5 0 12.4 0 14.8z"/>
				<path id="&lt;Path&gt;" class="s8" d="m854.2 246.8c0 113.3-158.4 205.1-353.9 205.1-195.5 0-353.9-91.8-353.9-205.1 0-2.4 0-12.3 0-14.8 0-113.3 158.4-205.1 353.9-205.1 195.5 0 353.9 91.8 353.9 205.1 0 2.5 0 12.4 0 14.8z"/>
				<path id="&lt;Path&gt;" class="s7" d="m859.4 235c0 113.2-160.8 205-359.2 205-198.4 0-359.2-91.8-359.2-205 0-2.5 0-12.4 0-14.9 0-113.3 160.8-205.1 359.2-205.1 198.4 0 359.2 91.8 359.2 205.1 0 2.5 0 12.4 0 14.9z"/>
				<path id="&lt;Path&gt;" class="s7" d="m859.4 235c0 113.2-160.8 205-359.2 205-198.4 0-359.2-91.8-359.2-205 0-2.5 0-12.4 0-14.9 0-113.3 160.8-205.1 359.2-205.1 198.4 0 359.2 91.8 359.2 205.1 0 2.5 0 12.4 0 14.9z"/>
				<path id="&lt;Path&gt;" class="s6" d="m846.6 209.8q0.1 1.3 0.1 2.7c0 107.6-155.1 194.8-346.5 194.8-191.4 0-346.5-87.2-346.5-194.8q0-1.4 0.1-2.7-0.1-1.3-0.1-2.6c0-107.3 155.1-194.2 346.5-194.2 191.4 0 346.5 86.9 346.5 194.2q0 1.3-0.1 2.6z"/>
			</g>
			<path id="&lt;Path&gt;" class="s9" d="m823.2 207.3c0 56-74.4 54-139.1 85-57.1 27.4-51.3 85.2-183.6 85.2-40.5 0-79.6-3.7-115.7-8.8-16.6-2.3-35.2 12.4-41.5 28-5.2 12.9-4.2 22.7-2 28.4 0.8 2 2.4 5.7 1.4 7.6-12.7 26-4.3 50.2-0.6 58.5 0.8 1.9 0.9 4.1 0 6-10.2 22.3-5.5 45.3-2.7 55.3 1 3.2 0.7 6.7-0.6 9.8-12.6 30.7 4.8 59.6 4.8 59.6-33.5-5.9-75.9-33.6-75.9-33.6 0 0-16.9-20.8-3.2-56.9 1.5-4.1 1.2-8.5-0.6-12.5-4-8.8-8.6-26.2 0.6-50.5 1.5-4 1.4-8.4-0.4-12.2-4-8.5-8.8-25.7 0-49.9 1.6-4.3 1.4-9.1-0.6-13.2-3.5-7-6.7-13.3-6.6-23 0.3-25-9.9-59.5-29.3-75.1-34.2-27.5-49.1-52.5-49.1-84 0-76.8 78.7-63.7 150.7-91.2 67.4-25.8 27.8-69.4 171-69.4 173.3 0 323 65.8 323 156.9z"/>
			<path id="&lt;Path&gt;" class="s10" d="m328.1 422.2c1.9 3.7 2.3 8.1 0.8 12-9 22.2-3.3 42.5 0.3 51.8 1.5 3.5 1.2 7.5-0.2 11.1-8.6 21.4-4.2 42.9-1.5 52.4 1 3.2 0.7 6.7-0.5 9.8-12.7 30.7 4.7 58 4.7 58-33.5-5.9-75.9-31.9-75.9-31.9 0 0-16-19.8-4.2-54.3 1.9-5.6 1.8-11.7-0.4-17.2-3.6-8.9-6.9-24.6 0.5-45.8 1.9-5.7 1.7-11.8-0.5-17.3-3.6-8.9-6.8-24.3 0.2-45.2 2.1-6.1 1.5-12.7-1.3-18.5-6.2-12.8-10-38.5 8.7-78l104.8 43.9c-33.4 16.4-41.6 57.2-35.5 69.2z"/>
			<path id="&lt;Path&gt;" class="s10" d="m819.9 200.6c0 56-71.1 48.8-135.8 79.8-57.1 27.4-51.5 88.2-183.9 88.2-39.3 0-77.2-3.9-112.3-11.1-30.4-6.2-60 21.4-61.6 52.4-0.2 5.1 0.4 9.3 1.7 12.1 2 4 2.3 8.5 0.7 12.6-8.6 21.9-3.2 41.8 0.5 51.2 1.4 3.6 1.3 7.6-0.2 11.2-8.6 21.4-4.2 43-1.5 52.5 1 3.2 0.7 6.7-0.5 9.8-12.7 30.7 6.2 61.6 6.2 61.6-33.5-5.9-76.4-32.7-76.4-32.7 0 0-17-22.6-5.2-57.1 1.9-5.6 1.8-11.6-0.4-17.1-3.6-8.9-6.9-24.6 0.5-45.9 1.9-5.7 1.7-11.8-0.5-17.3-3.6-8.8-6.8-24.3 0.2-45.2 2.1-6.1 1.5-12.8-1.3-18.6-4-8.2-7-21.7-3.6-40.7 3.5-20.2-4.4-46.7-19.9-60.2-29.2-25.2-46.1-48.6-46.1-79.6 0-76.8 76.7-71.1 148.7-98.6 67.4-25.8 27.8-69.4 171-69.4 173.3 0 319.7 71 319.7 162.1z"/>
			<path id="&lt;Path&gt;" class="s11" d="m186.9 196.1c0-34.3 29.5-51.2 86.3-65.9 18.6-4.8 37.8-9.8 57.2-17.1 28.3-10.6 38.9-24.2 49.9-36.1 16.6-18 31-33.6 119.4-33.6 167.8 0 312.3 69.1 312.3 152.2 0 24.7-14.6 33.5-61.4 46.3-20.7 5.7-44.1 12.1-67.1 23-21.7 10.2-35.4 24.3-48.6 37.9-25.2 26-49.1 50.4-134.7 50.4-36.2 0-71.5-3.4-104.5-9.5-35-6.6-63.3 11.7-74.3 44.7 0 0-2.7 9.3-3.3 13.4-0.8 5.2-6.3 8.3-11.2 6.5-15.4-5.7-32.1-13-45.7-19.9-1.9-1-3.3-2.6-4.1-4.6q-0.5-1.4-1.2-2.8c-2.5-5.3-7.7-33.5-0.3-60 4.5-15.8-6.9-31.7-20.3-41.9-31.4-24.1-48.4-53.5-48.4-83z"/>
			<path id="&lt;Path&gt;" class="s12" d="m206 166.4c-9 21.4-8.4 46 3.7 66.2 6.9 11.4 16.3 21.3 25.9 30.4 9 8.5 17.7 16.1 21.9 28.2 1.9 5.4 2.9 11.2 2.6 16.9 0 1.2-0.9 11-2.6 10-0.9-0.6 0-9.8-0.1-11.3-0.6-5.7-2.4-11.4-5.1-16.5-6-11.5-17.2-18.1-26.7-26.6-9.7-8.7-18.7-18.3-25.3-29.7-6.7-11.7-10.1-25.6-9-39.1 0.5-6.4 2.1-12.7 5.2-18.3 1.6-2.8 3.5-5.4 5.9-7.6 0.6-0.5 3.5-2.3 3.6-2.6z"/>
			<path id="&lt;Path&gt;" class="s13" d="m506.2 49.1c40.7-2.4 82 1.6 121.8 10.3 45 10 90.2 26.8 127.2 54.8 8.6 6.5 16.6 13.8 23.9 21.7 3.6 4 7 8.2 10.1 12.6 2.5 3.6 5.7 7.8 7.3 12 0.7 2 0.3 2.1-1.1 0.6-3.4-3.6-6-8.2-9.4-11.9-7.1-7.9-14.8-15.1-23.3-21.6-36.1-27.6-79.5-44.8-123-56.9-25.5-7.1-51.5-12.3-77.7-15.7q-17.3-2.3-34.7-3.8-7.2-0.6-14.4-1.1c-1.7-0.1-3.6 0-5.3-0.3 0.1 0-2.6-0.6-1.4-0.7z"/>
			<path id="&lt;Path&gt;" class="s10" d="m615.6 163.2c4.8 2.6 7.8 7.6 7.8 13v9.4c0 4.7-2.5 9.1-6.5 11.3l-106.2 58.8-0.8 0.4c-0.3 0.2-0.7 0.4-1.1 0.6-5.8 2.8-12.5 2.6-18.2-0.6l-89.6-50.6c-4-2.2-6.5-6.6-6.5-11.3v-32.5c0-1.9 1-3.8 3-4.9l92.5-50.3c6.4-3.4 14.1-3.4 20.5 0z"/>
			<g id="&lt;Group&gt;">
				<path id="&lt;Path&gt;" class="s14" d="m486 244.3l-89.6-50.7c-4-2.2-6.5-6.5-6.5-11.2v-32.5l105.8-26.9 105.8 26.9v32.5c0 4.7-2.5 9-6.5 11.2l-89.6 50.7c-6 3.4-13.3 3.4-19.4 0z"/>
				<path id="&lt;Path&gt;" class="s15" d="m504.2 125.2l97.3 24.7v32.5c0 4.7-2.5 9-6.5 11.2l-89.6 50.7c-0.4 0.2-0.8 0.3-1.2 0.5z"/>
				<path id="&lt;Path&gt;" class="s16" d="m484.9 181.4h21.3v62.4l-0.8 0.5c-6 3.4-13.3 3.4-19.4 0l-1.1-0.7z"/>
				<path id="&lt;Path&gt;" class="s17" d="m485.5 205.1l-92.6-50.3c-3.9-2.1-3.9-7.7 0-9.9l92.6-50.2c6.4-3.5 14.1-3.5 20.5 0l92.5 50.2c4 2.2 4 7.8 0 9.9l-92.5 50.3c-6.4 3.4-14.1 3.4-20.5 0z"/>
				<path id="&lt;Path&gt;" class="s4" d="m599.4 156.5c-25.8 16.4-52.7 31.4-79.4 46.3-7.2 4-14.5 9.2-23 9.6-8.8 0.5-16-4.4-23.4-8.4-15.4-8.5-30.7-17.2-45.9-26.1q-10.4-6.1-20.6-12.3c-2.8-1.7-5.7-3.4-8.5-5.1-1.9-1.2-4.7-2.3-6.3-4-1.7-1.7-0.9-3.4 1.5-3.2 1.7 0.2 4.2 2 5.7 2.7q9.7 4.6 19.3 9.3c15.6 7.6 31 15.6 46.3 23.6 7.9 4.1 15.6 9 23.8 12.6 8.5 3.7 15.7-1.1 23.1-5.1q25.7-13.7 51.8-26.8c7.8-3.9 15.6-7.7 23.5-11.5 3-1.5 6.1-3.2 9.3-4.4 0.6-0.3 1.3-0.8 2-0.7 1.6 0.3 2.4 2.5 0.8 3.5z"/>
				<path id="&lt;Path&gt;" class="s18" d="m544.6 242.8c-6.2 3.9-12.7 7.5-19.1 11-7.4 4-15.4 9.7-23.9 10.7-7.9 1-14.3-2.2-21.1-5.8-7.8-4.1-15.5-8.3-23.2-12.8q-5.4-3.1-10.8-6.4c-2.1-1.3-6.6-3-8-5-2.3-3.5 2.6-1.8 3.9-1.3q5.6 2.3 11.1 4.8c8.2 3.6 16.3 7.5 24.3 11.5 6.2 3 13 7.8 20 8.2 5.2 0.2 9.4-1.7 14-3.8q6.8-3.2 13.6-6.2c4.1-1.7 8.3-3.5 12.4-5.2 1.5-0.6 3.4-1.9 5-2 1.2 0 4.1 0.9 1.8 2.3z"/>
			</g>
			<path id="&lt;Path&gt;" class="s11" d="m257.2 445.3q0-0.1 0-0.1c-2.3-5.7-4.2-14.2-2.8-25.4 0.7-5.3 6.4-8.3 11.1-6 13.8 6.8 28.5 13 44 18.5 3.6 1.3 5.9 5 5.1 8.7-1.7 7.6-1.9 14.8-1.5 21.3 0.4 5.5-5.2 9.6-10.4 7.7-13.4-5-26.1-10.5-38.2-16.5-3.4-1.7-5.8-4.7-7.3-8.2z"/>
			<path id="&lt;Path&gt;" class="s13" d="m320.1 469.8c-2.8-6.4-3.9-13.4-3.5-20.4 0.1-1.9 3.1-19.3 8.2-13 1.4 1.8 0.5 5.3 0.1 7.2-0.7 3.7-1.5 7.2-1.7 10.9-0.3 3.8-0.2 7.6 0 11.4 0.1 1 0.6 2.5 0.2 3.5-0.5 1.3-2.4 2.3-3.3 0.4z"/>
			<path id="&lt;Path&gt;" class="s12" d="m300.8 430.7c-8.9-0.4-18.1-2.9-26.3-6.4-3.8-1.5-20.1-8.8-12.2-15 2.9-2.3 7.1-0.3 10.1 0.9 4.8 1.8 9.3 4.2 13.7 6.7 4.5 2.6 8.9 5.2 13.1 8.1 1.3 0.9 6.6 5.4 1.6 5.7z"/>
			<path id="&lt;Path&gt;" class="s11" d="m257.2 508.4q0 0 0 0c-2.3-5.7-4.2-14.1-2.8-25.2 0.7-5.2 6.3-8.2 11.1-5.9 13.8 6.7 28.5 12.9 44 18.5 3.7 1.3 5.8 5.1 5 9-1.5 7.2-1.9 14.1-1.7 20.5 0.2 5.5-5.4 9.4-10.6 7.5-13.3-5-26-10.5-38-16.5-3.2-1.6-5.6-4.5-7-7.9z"/>
			<path id="&lt;Path&gt;" class="s11" d="m270 582.2c-8.7-4.7-14.7-13.3-15.8-23.1-0.4-3.8-0.4-8.1 0.2-13 0.7-5.2 6.4-8.2 11.1-5.9 13.2 6.5 27.3 12.5 42.1 17.8 3.6 1.3 5.6 5.1 4.9 8.8-1.5 7.5-1.6 14.6-1 21 0.6 5.7-5.1 10-10.4 8q-13.3-5.1-25.7-10.7-2.9-1.5-5.4-2.9z"/>
			<path id="&lt;Path&gt;" class="s13" d="m318.9 400.9c-3.2-1.4 0.5-15.2 1.2-17.5 2.4-7.6 6.5-14.2 11.6-20.1 9.8-11.4 24.6-19.3 39.4-21.5 3.8-0.6 15.4-0.7 22 0.7 1.5 0.3 1.6 1.1 0.1 2-0.5 0.3-5.9 0.1-11.2 0.5-15 1.1-28.8 8.5-39.8 18.8-6.1 5.8-11.3 12.3-15.2 19.7-1.9 3.7-3.4 7.4-4.8 11.3-0.6 1.7-1.7 6.7-3.3 6.1z"/>
			<path id="&lt;Path&gt;" class="s12" d="m291.5 496c-7.4 0.1-15.2-2.3-21.8-5.6-2.6-1.3-5.8-2.9-7.8-5.2-2.5-3-1.4-7.7 2.7-8.5 5.7-1.1 13.8 4.6 18.3 7.3 3.2 2 6.6 4.1 9.3 6.7 1.6 1.6 3 5.1-0.7 5.3z"/>
			<path id="&lt;Path&gt;" class="s12" d="m282.4 555.1c-5.2 0.1-11.2-1.5-15.6-4.3-3.5-2.1-8.3-8.4-2-10.7 4.9-1.7 11.1 2.5 14.8 5.2 1.7 1.3 4.1 2.9 5.2 4.9 1.1 2 0.3 4.8-2.4 4.9z"/>
			<path id="&lt;Path&gt;" class="s12" d="m461.2 347.6c41.9 1.1 84.7-0.9 124.9-13.8 2.1-0.6 20.7-9 21.3-7.8 1.5 2.6-18.3 12.7-20.3 13.6-20.2 9.5-42.8 13.4-64.8 14.5-12.3 0.6-24.5 0.3-36.7-0.8q-8.7-0.8-17.3-2.3c-1.9-0.3-4.6-0.5-6.4-1.3-0.8-0.3-3.1-2.2-0.7-2.1z"/>
			<path id="&lt;Path&gt;" class="s13" d="m321.2 535.5c-2.7-5.9-4.7-12.5-4.3-19.2 0.3-3.5 1.2-6.5 3-9.5 1.3-2.1 3.8-3.8 5.3-0.6 0.7 1.6 0.1 4-0.1 5.6-0.6 3.6-1.4 7-1.4 10.7 0 3.7 0.7 7.4 0.5 11.1 0 1.5-1.4 4.5-3 1.9z"/>
			<path id="&lt;Path&gt;" class="s13" d="m641.4 292.2c4.5-9.2 12.4-16.5 20.3-22.8 9.7-7.7 20.6-14 31.9-18.9 23.8-10.4 49.1-12.4 74.2-17.8 10.3-2.2 20.4-4.6 29.2-10.7 1.2-0.8 2.1-1.4 1.3 0.5-0.8 2-3.7 3.9-5.4 5.1-4.1 2.9-8.9 5-13.6 6.9-24.1 9.5-50.3 12-74.6 21-13.3 4.9-26.2 11.4-38.2 19-5.5 3.5-10.9 7.2-15.9 11.4-2.1 1.8-4.1 3.5-5.9 5.5-0.4 0.4-1.1 1.7-1.6 1.9-0.7 0.3-2.5 0.4-1.7-1.1z"/>
			<path id="&lt;Path&gt;" class="s13" d="m284.8 131.6c24.8-7.5 50.6-12.9 73.1-26.5 1.1-0.6 9.1-7.1 10-6 1.4 1.9-8.7 10.4-10 11.4-10.3 8.3-22.9 13.5-35.5 17.2-7.4 2.1-15 3.5-22.6 4.3-3.5 0.4-7 0.7-10.5 0.7-1 0-3.1 0.5-4 0-0.1-0.1-1.9-0.6-0.5-1.1z"/>
			<path id="&lt;Path&gt;" class="s10" d="m458.1 640.8c-29.1 17.6-63.4 24.5-109.3 24.5-88.2 0-160.6-43.9-160.1-83.6 0.1-11.3 4.3-21.6 12.2-30.8 2.3-2.6 9.3-5.6 19.2 1.6 7.6 5.5 15.8 11.3 30.8 20.4 15.5 9.3 38.2 20.4 74.1 30.9 0 0.1 1.4 1.1 1.5 1.3 0.6 1.9 2.1 4.2 3.1 5.9 1.2 1.8 5.4 5.6 8 4.5 2.7-1.2 0.3-6-0.2-8 29.6 8 65.2 14.7 114 20.6 2.4 0.3 5.9 2.3 8.6 4.8 3.6 3.3 1.2 6-1.9 7.9z"/>
			<path id="&lt;Path&gt;" class="s9" d="m458.6 631.8c4.4 3.4 7.8 8.4 4.3 10.4-29.1 17.7-68.7 27.8-114.6 27.8-88.2 0-159.6-42.9-159.6-88.3 0-0.9 0.1-1.8 0.1-2.6 12 66.9 125.5 90.3 207.3 78.5 44.6-6.4 62.5-25.8 62.5-25.8z"/>
			<path id="&lt;Path&gt;" class="s13" d="m320.9 595.3c-4.5-5.4-5.9-13.2-5.9-20 0.1-3.8 0.3-8 1.9-11.5 1.2-2.6 4.6-4.7 6.6-1.3 1.1 2 0 5.1-0.4 7.2-0.8 3.6-1.7 7.2-1.9 11-0.3 3.4-0.2 6.9 0.6 10.3 0.1 0.5 1.9 6.7-0.9 4.3z"/>
			<path id="&lt;Path&gt;" class="s11" d="m212.4 564.5c6.6-3 12.2 14.8 65.7 37.1 20.7 8.6 45.7 16.3 67.5 21.3 27.7 6.5 50.3 9.2 43.6 15.4-20.8 19.3-137.1 4.6-174-34.2-10.6-11.1-15.9-33.7-2.8-39.6z"/>
			<path id="&lt;Path&gt;" class="s12" d="m209.1 588.9c12.1 12.7 25.8 24.3 41.3 32.6 18.4 9.6 37.9 15.3 58 19.7 4.2 1 8.5 1.6 12.7 2.4 0.8 0.2 8.2 1.1 4.5 3.3-2 1.1-6.6 0-8.7 0-5.1-0.2-10.1-0.6-15.1-1.1-19.9-2-40.4-7.5-58-17.1-9.6-5.2-18.8-11.2-26.2-19.3-3.3-3.6-6.3-7.7-8.6-12.1-0.9-1.8-2.3-4.3-2.5-6.4-0.2-1.4 0.9-3.8 2.6-2z"/>
		</g>
	</g>
</svg>
